<svg xmlns="http://www.w3.org/2000/svg" width="60" height="56" viewBox="0 0 60 56" fill="none"><path d="M49.8229 27.4032C49.8229 27.8237 49.8229 28.1351 49.8229 28.4387C49.8229 34.6438 49.8384 40.8567 49.8229 47.0618C49.8073 50.978 47.1594 54.3414 43.4865 55.1433C42.8342 55.2834 42.1509 55.369 41.4753 55.369C30.34 55.3846 19.2048 55.369 8.06954 55.3846C3.80646 55.3846 0.187894 51.9278 0.0403558 47.6068C-0.0295308 45.5514 0.00929509 43.4882 0.0248254 41.4251C0.0248254 40.374 0.521796 39.8913 1.56233 39.8835C3.7987 39.868 6.03507 39.8835 8.41897 39.8835C8.41897 39.5176 8.41897 39.1984 8.41897 38.8714C8.48886 28.0494 8.56651 17.2197 8.62863 6.39774C8.64416 3.63385 9.89436 1.64853 12.3947 0.542979C13.179 0.200413 14.1108 0.052487 14.9728 0.0447014C27.8008 0.0135591 40.6289 -0.0487254 53.4492 0.0680583C57.1143 0.0992007 59.9098 2.66844 59.9564 6.50673C60.0341 12.9454 59.9875 19.3919 59.9719 25.8383C59.9719 26.905 59.4517 27.3877 58.3568 27.3955C55.8331 27.4032 53.3094 27.3955 50.7857 27.3955C50.5062 27.3955 50.2189 27.3955 49.8151 27.3955L49.8229 27.4032ZM11.0436 39.8913H12.0531C19.4145 39.8913 26.7836 39.8913 34.145 39.8913C35.6359 39.8913 36.0397 40.3039 36.0552 41.791C36.0707 43.7452 35.9853 45.7071 36.1173 47.6613C36.3813 51.6398 40.8308 53.991 44.2708 52.0212C46.3208 50.8456 47.1827 49.016 47.1749 46.6881C47.1672 33.5149 47.1749 20.3339 47.1594 7.16072C47.1594 5.63475 47.4389 4.20999 48.3009 2.93315C48.3397 2.87865 48.3164 2.79301 48.3242 2.6918C48.1766 2.68401 48.0524 2.66844 47.9204 2.66844C36.9094 2.66844 25.9061 2.66844 14.8951 2.66844C12.6743 2.66844 11.2688 4.17106 11.2533 6.47559C11.1834 17.2742 11.1057 28.0806 11.0358 38.8792C11.0358 39.1828 11.0358 39.4865 11.0358 39.8835L11.0436 39.8913ZM35.5893 52.7375C33.7723 50.6666 33.2908 48.4087 33.4151 45.9485C33.4694 44.8352 33.4228 43.7218 33.4228 42.5851H2.65722C2.65722 44.259 2.61063 45.8706 2.66498 47.4823C2.7737 50.4641 5.17313 52.7375 8.16272 52.7375C16.9762 52.7375 25.7974 52.7375 34.6109 52.7375C34.8594 52.7375 35.1156 52.7375 35.5815 52.7375H35.5893ZM57.324 24.7016C57.324 18.4887 57.3395 12.3615 57.3085 6.23424C57.3085 5.2844 56.8426 4.4747 56.1359 3.83628C54.9401 2.75408 53.5424 2.48937 52.0825 3.13558C50.5606 3.80514 49.8151 5.05862 49.8151 6.7403C49.8151 12.525 49.8151 18.3175 49.8151 24.1021C49.8151 24.2968 49.8539 24.4992 49.8772 24.7016H57.3162H57.324Z" fill="#111F59"></path><path d="M28.5226 33.1645C24.8575 33.1645 21.1923 33.1645 17.5271 33.1645C17.2165 33.1645 16.8982 33.1645 16.5953 33.0944C15.9974 32.9543 15.648 32.565 15.6169 31.9421C15.5781 31.2959 15.8499 30.8132 16.4866 30.6341C16.805 30.5407 17.1544 30.5251 17.4883 30.5251C24.8186 30.5251 32.149 30.5251 39.4793 30.5251C39.5026 30.5251 39.5336 30.5251 39.5569 30.5251C40.7683 30.5251 41.3973 30.9689 41.4128 31.8331C41.4206 32.6973 40.7916 33.1722 39.5958 33.1722C35.9073 33.1722 32.2111 33.1722 28.5226 33.1722V33.1645Z" fill="#111F59"></path><path d="M28.4902 21.1047C32.1554 21.1047 35.8205 21.1047 39.4857 21.1047C39.7963 21.1047 40.1224 21.0891 40.4175 21.167C41.0232 21.3382 41.4037 21.7509 41.4037 22.4126C41.4037 23.0666 41.0543 23.4871 40.4331 23.6661C40.2156 23.7284 39.9749 23.744 39.7419 23.744C32.2563 23.744 24.7707 23.744 17.2851 23.744C16.2601 23.744 15.701 23.3391 15.6233 22.5839C15.5302 21.6964 16.0892 21.1124 17.1065 21.1124C19.5758 21.0969 22.0451 21.1124 24.5145 21.1124C25.8423 21.1124 27.1624 21.1124 28.4902 21.1124V21.1047Z" fill="#111F59"></path><path d="M23.1743 11.6841C25.0457 11.6841 26.9171 11.6841 28.7808 11.6841C29.0681 11.6841 29.3632 11.6763 29.6349 11.7464C30.2484 11.9099 30.6289 12.3225 30.6289 12.9765C30.6289 13.6616 30.2639 14.0976 29.6039 14.2533C29.3787 14.3078 29.138 14.3156 28.905 14.3156C25.038 14.3156 21.1631 14.3156 17.2961 14.3156C16.9622 14.3156 16.5972 14.2923 16.3099 14.1521C15.7353 13.8718 15.5101 13.3424 15.6421 12.7118C15.7974 11.9799 16.3254 11.6919 17.0165 11.6919C19.0665 11.6763 21.1166 11.6919 23.1743 11.6919V11.6841Z" fill="#111F59"></path></svg>