<svg xmlns="http://www.w3.org/2000/svg" width="61" height="63" viewBox="0 0 61 63" fill="none"><path d="M45.0169 57.4962C44.0157 57.3582 42.3674 57.151 40.7362 56.8921C39.6833 56.7195 38.8462 56.9525 38.0953 57.7552C37.1288 58.7822 36.0845 59.7315 35.0661 60.7067C32.5115 63.1664 29.396 63.1577 26.8328 60.6808C25.7971 59.6797 24.7356 58.7131 23.7431 57.6688C23.0527 56.9439 22.276 56.7281 21.318 56.8749C19.8422 57.1079 18.3578 57.2632 16.8907 57.5049C13.7061 58.0313 10.8926 56.1758 10.3144 52.6287C10.0986 51.291 9.8138 49.962 9.64983 48.6157C9.51174 47.4851 9.01981 46.7256 7.97554 46.2251C6.6551 45.595 5.37782 44.8787 4.08328 44.1797C1.16623 42.6003 0.182372 39.6056 1.615 36.6368C2.27091 35.2646 2.91818 33.8923 3.62587 32.546C4.08328 31.6743 4.09191 30.8717 3.62587 30.0001C2.91818 28.6537 2.27954 27.2815 1.615 25.9093C0.182372 22.9318 1.14896 19.9285 4.06601 18.3578C5.37782 17.6501 6.68099 16.9251 8.02732 16.2779C9.01118 15.8032 9.47722 15.0783 9.63256 14.0167C9.89147 12.2993 10.1763 10.5819 10.5905 8.90758C11.2119 6.38752 13.5507 4.75639 16.1398 4.99804C17.84 5.15339 19.5315 5.40367 21.2231 5.66258C22.2415 5.81792 23.0613 5.60217 23.7949 4.82544C24.7788 3.78117 25.8489 2.80594 26.8846 1.81346C29.4132 -0.611661 32.5288 -0.60303 35.0575 1.83072C36.0931 2.83183 37.1633 3.79843 38.1471 4.8427C38.8548 5.59354 39.6488 5.81792 40.6413 5.66258C42.143 5.42956 43.6533 5.25695 45.1549 5.02393C48.2532 4.54927 51.0322 6.34437 51.619 9.95184C51.8434 11.3154 52.111 12.679 52.2922 14.0426C52.4303 15.0783 52.905 15.7859 53.8457 16.252C55.1834 16.9079 56.4952 17.6328 57.807 18.3319C60.7672 19.9199 61.751 22.9232 60.2925 25.9352C59.628 27.2988 58.9893 28.6796 58.2817 30.026C57.8415 30.8717 57.8415 31.6571 58.2817 32.5029C58.9807 33.8492 59.628 35.2214 60.2925 36.5936C61.751 39.6056 60.7758 42.609 57.8243 44.1969C56.5124 44.9046 55.2006 45.6209 53.8629 46.2768C52.9222 46.7429 52.4562 47.4506 52.3008 48.4776C52.0419 50.1605 51.783 51.8606 51.3688 53.509C50.687 56.219 48.4431 57.7465 45.0255 57.4876L45.0169 57.4962ZM16.1139 8.57099C14.8971 8.50195 14.2239 8.98525 13.9909 10.1244C13.6629 11.7469 13.3695 13.3781 13.102 15.0092C12.7826 16.9769 11.747 18.4009 9.98641 19.3157C8.61419 20.0321 7.2506 20.7484 5.88701 21.4906C4.49753 22.25 4.23863 23.0786 4.93768 24.5112C5.61085 25.9007 6.28401 27.2901 6.98306 28.671C7.86335 30.4229 7.84609 32.1576 6.9658 33.901C6.23222 35.3509 5.50728 36.8094 4.82548 38.2852C4.27314 39.4762 4.56658 40.3133 5.70578 40.9433C7.12978 41.7287 8.57103 42.4881 10.0123 43.239C11.747 44.1451 12.7654 45.5519 13.0847 47.4851C13.3609 49.1162 13.6457 50.7473 13.9736 52.3698C14.2153 53.5867 14.9057 54.0873 16.1312 53.9492C17.6415 53.7766 19.1518 53.5781 20.6449 53.3192C22.7852 52.9481 24.6148 53.4573 26.1596 54.9935C27.2384 56.0636 28.3345 57.1165 29.4305 58.1694C30.4834 59.1792 31.4241 59.1792 32.477 58.1694C33.6507 57.0388 34.8158 55.8996 35.9895 54.7777C37.2582 53.5608 38.7771 53.0171 40.5291 53.2415C42.281 53.4659 44.0157 53.7421 45.7677 53.9492C46.9932 54.0959 47.6836 53.5867 47.9253 52.3698C48.2532 50.7473 48.538 49.1162 48.8142 47.4851C49.1335 45.5519 50.1519 44.1451 51.8866 43.239C53.2847 42.514 54.6742 41.7804 56.055 41.0296C57.3927 40.296 57.6603 39.4503 56.9871 38.0608C56.3139 36.6713 55.6408 35.2818 54.9417 33.901C54.0614 32.1576 54.0442 30.4229 54.9245 28.671C55.6149 27.2901 56.2967 25.9007 56.9698 24.5112C57.6689 23.0786 57.41 22.2414 56.0205 21.4906C54.6397 20.7397 53.2415 20.0062 51.8521 19.2726C50.1519 18.375 49.1421 16.9855 48.8228 15.0869C48.5467 13.4558 48.2618 11.8246 47.9425 10.2021C47.6922 8.93347 47.0105 8.44154 45.7332 8.59688C44.2229 8.76949 42.7212 8.97662 41.2195 9.2269C39.1137 9.58937 37.3014 9.10607 35.7824 7.56988C34.7123 6.49109 33.6076 5.44682 32.5115 4.39392C31.4155 3.34102 30.492 3.34102 29.4046 4.39392C28.2482 5.50723 27.1003 6.62054 25.9525 7.73385C24.6666 8.97662 23.1304 9.52896 21.3439 9.29594C19.5661 9.06292 17.7968 8.81264 16.1139 8.57962V8.57099Z" fill="#111F59"></path><path d="M19.3438 45.0081C18.2736 44.9046 17.7213 44.5766 17.4192 43.8862C17.0913 43.1267 17.2639 42.4363 17.8249 41.8667C18.9036 40.762 20.0083 39.6746 21.0957 38.5786C27.7756 31.8987 34.4468 25.2275 41.1267 18.5476C42.2573 17.417 43.3274 17.2617 44.1559 18.1074C44.9672 18.936 44.8119 19.9802 43.7072 21.0763C36.0521 28.7314 28.4056 36.3865 20.7333 44.0329C20.2845 44.4817 19.6717 44.7751 19.3438 44.9995V45.0081Z" fill="#111F59"></path><path d="M30.338 21.6632C30.338 25.3397 27.3778 28.2826 23.7186 28.2567C20.1025 28.2309 17.1336 25.2707 17.125 21.6804C17.1164 18.0816 20.1456 15.0265 23.7358 15.0178C27.3433 15.0092 30.338 18.0212 30.338 21.6632ZM23.7186 18.6771C22.0443 18.6944 20.7066 20.0579 20.7584 21.7063C20.8015 23.3375 22.122 24.632 23.7531 24.632C25.4101 24.632 26.7564 23.2857 26.7478 21.6287C26.7478 19.963 25.4015 18.6598 23.7186 18.6685V18.6771Z" fill="#111F59"></path><path d="M38.2921 34.2979C41.9859 34.3756 44.8943 37.4135 44.7993 41.1072C44.713 44.6025 41.6061 47.58 38.1108 47.5196C34.4084 47.4591 31.5259 44.404 31.595 40.6326C31.664 37.0855 34.7019 34.2116 38.2921 34.2979ZM38.085 43.8517C39.7765 43.8948 41.1142 42.6434 41.166 40.9519C41.2178 39.3466 39.906 37.9658 38.2921 37.914C36.6178 37.8622 35.2197 39.1395 35.1765 40.7879C35.1334 42.4708 36.402 43.8172 38.0763 43.8603L38.085 43.8517Z" fill="#111F59"></path></svg>