<svg xmlns="http://www.w3.org/2000/svg" width="51" height="67" viewBox="0 0 51 67" fill="none"><path d="M0.949219 35.54C0.949219 27.8576 0.949219 20.1753 0.949219 12.4929C0.949219 7.56004 3.97362 4.53562 8.91458 4.53562C12.0037 4.53562 15.0847 4.51944 18.1738 4.5437C18.7318 4.5437 19.0391 4.39814 19.3302 3.89677C22.3789 -1.30297 29.4952 -1.29488 32.5439 3.89677C32.8431 4.40623 33.1585 4.5437 33.7083 4.53562C36.8541 4.51136 39.9998 4.51944 43.1536 4.52753C47.8358 4.53562 50.9168 7.62473 50.9249 12.315C50.9249 27.8333 50.8926 43.3517 50.9492 58.87C50.9653 63.2692 47.6822 66.6979 43.1536 66.6656C31.6786 66.5766 20.1955 66.6413 8.72051 66.6332C4.02215 66.6332 0.957289 63.5522 0.957289 58.8619C0.957289 51.0906 0.957289 43.3113 0.957289 35.54H0.949219ZM38.3339 7.8835C38.3339 8.44149 38.3339 8.89434 38.3339 9.35528C38.2612 13.3258 35.2287 16.5039 31.2743 16.5929C27.6676 16.6737 24.0529 16.6656 20.4462 16.5929C17.3652 16.5282 14.6804 14.369 13.896 11.377C13.6049 10.2691 13.5563 9.09651 13.3865 7.87542C11.7854 7.87542 10.1599 7.86733 8.52644 7.87542C5.96296 7.89159 4.29709 9.54936 4.29709 12.1209C4.28901 27.7929 4.28901 43.4568 4.29709 59.1288C4.29709 61.6195 5.91443 63.2854 8.39705 63.2934C20.0904 63.3177 31.7756 63.3096 43.469 63.2773C44.1806 63.2773 44.9569 63.0832 45.5796 62.7516C47.0918 61.943 47.5932 60.5359 47.5932 58.87C47.5851 43.3517 47.5932 27.8414 47.5932 12.3231C47.5932 12.1048 47.5932 11.8945 47.5851 11.6762C47.4395 9.63023 45.9435 8.01289 43.938 7.90776C42.1266 7.81072 40.3071 7.89159 38.342 7.89159L38.3339 7.8835ZM16.9366 7.86733C16.4837 11.0211 18.1738 13.4957 21.7401 13.3097C24.7241 13.156 27.7242 13.2935 30.7082 13.2773C33.7245 13.2611 35.5279 10.9322 34.8486 7.86733C33.9105 7.86733 32.9644 7.86733 32.0101 7.86733C30.8214 7.85924 30.3605 7.51152 29.9966 6.37129C29.4062 4.51944 27.8051 3.3307 25.9128 3.34688C24.0205 3.35496 22.4436 4.5437 21.8533 6.40364C21.5055 7.48726 21.0365 7.85116 19.9125 7.86733C18.934 7.87542 17.9555 7.86733 16.9366 7.86733Z" fill="#101D52"></path><path d="M23.4689 41.6858C24.7951 40.2383 26.0485 38.7908 27.3909 37.4323C29.5581 35.2408 31.782 33.114 33.9977 30.971C34.8226 30.1704 35.7525 30.1138 36.4642 30.7769C37.2405 31.4966 37.2001 32.4913 36.3025 33.3727C33.181 36.4376 30.0514 39.4944 26.9219 42.5511C26.1294 43.3274 25.345 44.1119 24.5363 44.872C23.663 45.6888 22.7977 45.6888 21.9243 44.8558C19.7733 42.7776 17.6384 40.6912 15.5035 38.5967C14.7029 37.8042 14.6382 36.8338 15.2932 36.1222C15.9644 35.4025 17.0157 35.4187 17.8325 36.2112C19.6277 37.9417 21.3987 39.6884 23.4608 41.6939L23.4689 41.6858Z" fill="#101D52"></path></svg>